<svg width="342" height="349" viewBox="0 0 342 349" fill="none" xmlns="http://www.w3.org/2000/svg">
<path d="M342 306.696H0V306.93H342V306.696Z" fill="#EBEBEB"/>
<path d="M162.108 264.916H30.0343C28.9996 264.914 28.008 264.349 27.277 263.346C26.546 262.343 26.1355 260.984 26.1355 259.567V5.30207C26.1445 3.89321 26.559 2.5461 27.289 1.55336C28.019 0.560613 29.0055 0.00241346 30.0343 0H162.108C163.144 0 164.137 0.563544 164.87 1.56666C165.602 2.56977 166.014 3.93029 166.014 5.34891V259.567C166.014 260.986 165.602 262.346 164.87 263.35C164.137 264.353 163.144 264.916 162.108 264.916ZM30.0343 0.187353C29.045 0.189835 28.0968 0.729798 27.3979 1.68873C26.699 2.64765 26.3065 3.94719 26.3065 5.30207V259.567C26.3065 260.922 26.699 262.222 27.3979 263.181C28.0968 264.14 29.045 264.68 30.0343 264.682H162.108C163.098 264.68 164.047 264.14 164.747 263.181C165.447 262.223 165.841 260.923 165.843 259.567V5.30207C165.841 3.94632 165.447 2.64681 164.747 1.68815C164.047 0.729494 163.098 0.189829 162.108 0.187353H30.0343Z" fill="#EBEBEB"/>
<path d="M310.064 264.916H177.984C176.948 264.914 175.956 264.349 175.224 263.347C174.492 262.344 174.08 260.985 174.078 259.567V5.30207C174.089 3.89235 174.505 2.54525 175.236 1.55277C175.967 0.560285 176.954 0.00238714 177.984 0H310.064C311.092 0.00487537 312.077 0.564164 312.805 1.55664C313.534 2.54912 313.947 3.89482 313.956 5.30207V259.567C313.956 260.983 313.547 262.34 312.817 263.343C312.088 264.346 311.098 264.911 310.064 264.916ZM177.984 0.187353C176.994 0.189829 176.045 0.729494 175.345 1.68815C174.645 2.64681 174.251 3.94632 174.249 5.30207V259.567C174.251 260.923 174.645 262.223 175.345 263.181C176.045 264.14 176.994 264.68 177.984 264.682H310.064C311.054 264.68 312.003 264.14 312.703 263.181C313.403 262.223 313.797 260.923 313.799 259.567V5.30207C313.797 3.94632 313.403 2.64681 312.703 1.68815C312.003 0.729494 311.054 0.189829 310.064 0.187353H177.984Z" fill="#EBEBEB"/>
<path d="M307.732 321.768H289.948V322.002H307.732V321.768Z" fill="#EBEBEB"/>
<path d="M243.525 324.316H212.724V324.551H243.525V324.316Z" fill="#EBEBEB"/>
<path d="M289.264 313.075H247.683V313.309H289.264V313.075Z" fill="#EBEBEB"/>
<path d="M49.0359 314.649H35.8826V314.883H49.0359V314.649Z" fill="#EBEBEB"/>
<path d="M92.9487 314.649H55.1304V314.883H92.9487V314.649Z" fill="#EBEBEB"/>
<path d="M166.992 318.602H116.054V318.836H166.992V318.602Z" fill="#EBEBEB"/>
<path d="M258.955 301.899H264.427V163.212H258.955V301.899Z" fill="#F0F0F0"/>
<path d="M232.697 306.677H262.991V301.89H232.697V306.677Z" fill="#F0F0F0"/>
<path d="M258.963 163.203H231.247V301.89H258.963V163.203Z" fill="#F5F5F5"/>
<path d="M256.008 235.427H234.202V260.195H256.008V235.427Z" fill="#F0F0F0"/>
<path d="M256.008 267.839H234.202V292.607H256.008V267.839Z" fill="#F0F0F0"/>
<path d="M242.198 249.506H248.005C248.451 249.506 248.812 249.011 248.812 248.401V247.211C248.812 246.601 248.451 246.106 248.005 246.106H242.198C241.752 246.106 241.391 246.601 241.391 247.211V248.401C241.391 249.011 241.752 249.506 242.198 249.506Z" fill="#F5F5F5"/>
<path d="M242.198 281.918H248.005C248.451 281.918 248.812 281.424 248.812 280.813V279.623C248.812 279.013 248.451 278.518 248.005 278.518H242.198C241.752 278.518 241.391 279.013 241.391 279.623V280.813C241.391 281.424 241.752 281.918 242.198 281.918Z" fill="#F5F5F5"/>
<path d="M256.008 170.856H234.202V195.624H256.008V170.856Z" fill="#F0F0F0"/>
<path d="M256.008 203.006H234.202V227.774H256.008V203.006Z" fill="#F0F0F0"/>
<path d="M242.198 184.936H248.005C248.451 184.936 248.812 184.441 248.812 183.83V182.64C248.812 182.03 248.451 181.535 248.005 181.535H242.198C241.752 181.535 241.391 182.03 241.391 182.64V183.83C241.391 184.441 241.752 184.936 242.198 184.936Z" fill="#F5F5F5"/>
<path d="M242.198 217.095H248.005C248.451 217.095 248.812 216.6 248.812 215.989V214.8C248.812 214.189 248.451 213.694 248.005 213.694H242.198C241.752 213.694 241.391 214.189 241.391 214.8V215.989C241.391 216.6 241.752 217.095 242.198 217.095Z" fill="#F5F5F5"/>
<path d="M289.291 301.899H305.707V163.212H289.291V301.899Z" fill="#F0F0F0"/>
<path d="M263.012 306.677H304.018V301.89H263.012V306.677Z" fill="#F0F0F0"/>
<path d="M289.291 163.203H261.575V301.89H289.291V163.203Z" fill="#F5F5F5"/>
<path d="M286.336 235.427H264.53V260.195H286.336V235.427Z" fill="#F0F0F0"/>
<path d="M286.336 267.839H264.53V292.607H286.336V267.839Z" fill="#F0F0F0"/>
<path d="M272.526 249.506H278.333C278.779 249.506 279.14 249.011 279.14 248.401V247.211C279.14 246.601 278.779 246.106 278.333 246.106H272.526C272.08 246.106 271.719 246.601 271.719 247.211V248.401C271.719 249.011 272.08 249.506 272.526 249.506Z" fill="#F5F5F5"/>
<path d="M272.526 281.918H278.333C278.779 281.918 279.14 281.424 279.14 280.813V279.623C279.14 279.013 278.779 278.518 278.333 278.518H272.526C272.08 278.518 271.719 279.013 271.719 279.623V280.813C271.719 281.424 272.08 281.918 272.526 281.918Z" fill="#F5F5F5"/>
<path d="M286.336 170.856H264.53V195.624H286.336V170.856Z" fill="#F0F0F0"/>
<path d="M286.336 203.006H264.53V227.774H286.336V203.006Z" fill="#F0F0F0"/>
<path d="M272.526 184.936H278.333C278.779 184.936 279.14 184.441 279.14 183.83V182.64C279.14 182.03 278.779 181.535 278.333 181.535H272.526C272.08 181.535 271.719 182.03 271.719 182.64V183.83C271.719 184.441 272.08 184.936 272.526 184.936Z" fill="#F5F5F5"/>
<path d="M272.526 217.095H278.333C278.779 217.095 279.14 216.6 279.14 215.989V214.8C279.14 214.189 278.779 213.694 278.333 213.694H272.526C272.08 213.694 271.719 214.189 271.719 214.8V215.989C271.719 216.6 272.08 217.095 272.526 217.095Z" fill="#F5F5F5"/>
<path d="M200.159 134.257L292.301 134.257V23.4754L200.159 23.4754V134.257Z" fill="#E6E6E6"/>
<path d="M190.282 19.166H298.265C298.508 19.166 298.741 19.2983 298.913 19.5337C299.085 19.7691 299.182 20.0884 299.182 20.4213C299.18 20.7526 299.083 21.0694 298.911 21.3028C298.739 21.5362 298.507 21.6672 298.265 21.6672H190.282C190.041 21.6647 189.811 21.5327 189.641 21.2995C189.471 21.0664 189.374 20.751 189.372 20.4213C189.372 20.09 189.468 19.7721 189.638 19.537C189.809 19.3018 190.04 19.1685 190.282 19.166Z" fill="#E6E6E6"/>
<path d="M196.253 134.257L290.481 134.257V23.4754L196.253 23.4754V134.257Z" fill="#F0F0F0"/>
<path d="M200.159 134.257H292.301V137.807H197.464L200.159 134.257Z" fill="#E6E6E6"/>
<path d="M189.735 134.257H283.963L281.268 137.807H187.04L189.735 134.257Z" fill="#F0F0F0"/>
<path d="M285.002 126.763V30.9692L201.725 30.9692V126.763H285.002Z" fill="#FAFAFA"/>
<path d="M266.096 126.763L233.969 30.9692H218.805L250.932 126.763H266.096Z" fill="white"/>
<path d="M247.676 126.763L215.549 30.9692H209.632L241.76 126.763H247.676Z" fill="white"/>
<path d="M202.416 126.763V30.9692H201.718V126.763H202.416Z" fill="#E6E6E6"/>
<g opacity="0.4">
<path d="M284.934 108.336H294.353V16.9178H284.934V108.336Z" fill="#F0F0F0"/>
<path d="M281.268 108.336H288.607V16.9178H281.268V108.336Z" fill="#E6E6E6"/>
<path d="M275.522 108.336H284.941V16.9178H275.522V108.336Z" fill="#F0F0F0"/>
<path d="M271.849 108.336H279.188V16.9178H271.849V108.336Z" fill="#E6E6E6"/>
<path d="M266.096 108.336H275.515V16.9178H266.096V108.336Z" fill="#F0F0F0"/>
</g>
<g opacity="0.4">
<path d="M205.227 108.336H210.658V16.9178H205.227V108.336Z" fill="#F0F0F0"/>
<path d="M203.114 108.336H207.341V16.9178H203.114V108.336Z" fill="#E6E6E6"/>
<path d="M199.796 108.336H205.227V16.9178H199.796V108.336Z" fill="#F0F0F0"/>
<path d="M197.69 108.336H201.917V16.9178H197.69V108.336Z" fill="#E6E6E6"/>
<path d="M194.366 108.336H199.797V16.9178H194.366V108.336Z" fill="#F0F0F0"/>
</g>
<path d="M112.326 90.5848H125.363L123.824 45.3018H112.326V90.5848Z" fill="#F5F5F5"/>
<path d="M132.73 93.0298L135.541 113.142H132.73L115.486 93.0298H132.73Z" fill="#F5F5F5"/>
<path d="M135.541 93.0298V113.142L118.298 93.0298H135.541Z" fill="#E6E6E6"/>
<path d="M65.1033 93.0298L67.9145 113.142H65.1033L47.8596 93.0298H65.1033Z" fill="#F5F5F5"/>
<path d="M67.9143 93.0298V113.142L50.6707 93.0298H67.9143Z" fill="#E6E6E6"/>
<path d="M148.202 90.6504H129.447V93.5543H148.202V90.6504Z" fill="#E6E6E6"/>
<path d="M36.2041 93.5542L129.447 93.5542V90.6502L36.2041 90.6502V93.5542Z" fill="#F5F5F5"/>
<path d="M93.1677 90.585H121.157L124.618 35.7095H96.6288L93.1677 90.585Z" fill="#E6E6E6"/>
<path d="M91.7175 90.585H119.707L123.168 35.7095H95.1786L91.7175 90.585Z" fill="#F0F0F0"/>
<path d="M117.361 84.505L120.528 41.7793H97.5314L94.3645 84.505H117.361Z" fill="white"/>
<path d="M80.6367 90.5847H89.6176L88.5574 59.3999H80.6367V90.5847Z" fill="#E0E0E0"/>
<path d="M67.4492 90.5849H86.7175L89.1047 52.7959H69.8295L67.4492 90.5849Z" fill="#F0F0F0"/>
<path d="M66.4507 90.5849H85.7258L88.1061 52.7959H68.831L66.4507 90.5849Z" fill="#F5F5F5"/>
<path d="M84.1046 86.3977L86.2797 56.9834H70.452L68.27 86.3977H84.1046Z" fill="#E0E0E0"/>
<path d="M179.454 169.966C179.518 171.013 179.354 172.063 178.982 172.982C178.61 173.901 178.047 174.649 177.365 175.13C176.682 175.611 175.911 175.804 175.149 175.684C174.386 175.565 173.667 175.138 173.082 174.459C172.496 173.779 172.071 172.877 171.86 171.866C171.65 170.856 171.662 169.782 171.897 168.782C172.132 167.781 172.578 166.899 173.18 166.246C173.781 165.593 174.51 165.199 175.275 165.113C175.782 165.056 176.293 165.135 176.777 165.348C177.262 165.561 177.711 165.902 178.099 166.353C178.487 166.804 178.807 167.355 179.039 167.975C179.272 168.595 179.413 169.271 179.454 169.966Z" fill="#E0E0E0"/>
<path d="M186.657 172.739C186.721 173.786 186.556 174.836 186.184 175.755C185.812 176.674 185.249 177.422 184.567 177.903C183.885 178.384 183.113 178.577 182.351 178.457C181.589 178.338 180.869 177.911 180.284 177.232C179.699 176.552 179.274 175.65 179.063 174.639C178.852 173.629 178.865 172.555 179.1 171.555C179.335 170.554 179.781 169.671 180.382 169.018C180.983 168.365 181.713 167.971 182.477 167.886C183.501 167.772 184.516 168.219 185.3 169.129C186.083 170.038 186.571 171.337 186.657 172.739Z" fill="#E0E0E0"/>
<path d="M191.862 169.554C191.924 170.601 191.759 171.65 191.386 172.568C191.013 173.487 190.449 174.233 189.767 174.712C189.084 175.192 188.313 175.383 187.551 175.263C186.789 175.142 186.07 174.715 185.486 174.035C184.901 173.354 184.477 172.452 184.267 171.442C184.056 170.431 184.07 169.358 184.305 168.358C184.54 167.358 184.987 166.476 185.588 165.824C186.189 165.171 186.918 164.778 187.683 164.692C188.707 164.581 189.722 165.03 190.505 165.941C191.289 166.853 191.776 168.152 191.862 169.554Z" fill="#E0E0E0"/>
<path d="M197.354 171.54C197.415 172.584 197.249 173.63 196.876 174.545C196.503 175.46 195.941 176.204 195.259 176.681C194.578 177.159 193.809 177.349 193.049 177.229C192.289 177.108 191.572 176.681 190.989 176.003C190.406 175.324 189.982 174.424 189.772 173.417C189.562 172.409 189.575 171.339 189.809 170.341C190.043 169.343 190.488 168.463 191.087 167.811C191.686 167.159 192.413 166.764 193.175 166.678C193.683 166.62 194.194 166.7 194.679 166.914C195.164 167.127 195.613 167.469 196.002 167.921C196.39 168.372 196.709 168.925 196.941 169.546C197.173 170.167 197.314 170.844 197.354 171.54Z" fill="#E0E0E0"/>
<path d="M202.286 172.364C202.286 172.364 201.835 187.109 184.543 187.109C167.252 187.109 166.759 172.364 166.759 172.364H202.286Z" fill="#F0F0F0"/>
<path d="M40.9579 306.696H47.2439L47.2439 187.137H40.9579L40.9579 306.696Z" fill="#E6E6E6"/>
<path d="M39.282 306.696H42.9824L42.9824 187.137H39.282L39.282 306.696Z" fill="#F0F0F0"/>
<path d="M127.368 187.137H38.1331V196.102H127.368V187.137Z" fill="#F0F0F0"/>
<path d="M211.876 306.696H218.162V187.137H211.876V306.696Z" fill="#E6E6E6"/>
<path d="M210.699 306.696H214.4V187.137H210.699V306.696Z" fill="#F0F0F0"/>
<path d="M219.283 187.137H130.049V196.102H219.283V187.137Z" fill="#E6E6E6"/>
<path d="M127.894 306.696H134.18V187.137H127.894L127.894 306.696Z" fill="#E6E6E6"/>
<path d="M126.219 306.696H129.919V187.137H126.219L126.219 306.696Z" fill="#F0F0F0"/>
<path d="M148.524 147.372H101.937L93.6328 185.048H140.227L148.524 147.372Z" fill="#E6E6E6"/>
<path d="M140.227 185.048L140.042 187.137H93.4482L93.6329 185.048H140.227Z" fill="#E6E6E6"/>
<path d="M147.094 147.372H100.5L92.2034 185.048H138.791L147.094 147.372Z" fill="#F0F0F0"/>
<path d="M137.881 183.334L145.418 149.095H101.417L93.8721 183.334H137.881Z" fill="white"/>
<path d="M126.656 185.048L126.465 187.137H75.1577L75.3424 185.048H126.656Z" fill="#F0F0F0"/>
<path d="M171 349C244.244 349 303.621 344.252 303.621 338.396C303.621 332.539 244.244 327.792 171 327.792C97.7555 327.792 38.3792 332.539 38.3792 338.396C38.3792 344.252 97.7555 349 171 349Z" fill="#F5F5F5"/>
<path d="M258.244 50.7254H179.523C176.823 50.7862 174.236 52.2231 172.268 54.7555C170.3 57.2879 169.092 60.734 168.88 64.4208L156.636 322.555C156.536 324.313 156.705 326.079 157.131 327.743C157.557 329.407 158.231 330.931 159.11 332.218C159.99 333.505 161.056 334.528 162.239 335.22C163.423 335.913 164.699 336.261 165.986 336.241H244.735C247.435 336.183 250.021 334.748 251.989 332.217C253.957 329.686 255.166 326.241 255.378 322.555L264.161 137.02C264.534 136.842 264.861 136.52 265.104 136.093C265.347 135.665 265.494 135.151 265.529 134.612L267.102 101.414C267.13 100.898 267.034 100.384 266.829 99.9494C266.624 99.515 266.321 99.1839 265.967 99.0061L267.601 64.4208C267.701 62.662 267.532 60.8939 267.106 59.2291C266.68 57.5644 266.005 56.0394 265.125 54.7512C264.245 53.463 263.179 52.4398 261.994 51.7467C260.809 51.0536 259.532 50.7058 258.244 50.7254Z" fill="#FF7F50"/>
<path d="M162.505 117.563H164.051C164.529 117.552 164.987 117.297 165.336 116.848C165.685 116.4 165.9 115.79 165.939 115.137L166.623 101.273C166.64 100.961 166.609 100.648 166.533 100.353C166.457 100.058 166.337 99.7877 166.181 99.5596C166.025 99.3315 165.835 99.1503 165.625 99.0276C165.415 98.9049 165.189 98.8433 164.96 98.8468H163.421C162.943 98.8565 162.484 99.1106 162.134 99.5593C161.785 100.008 161.571 100.619 161.534 101.273L160.85 115.137C160.833 115.448 160.863 115.761 160.938 116.055C161.014 116.349 161.133 116.619 161.289 116.847C161.444 117.075 161.633 117.256 161.842 117.38C162.051 117.503 162.277 117.565 162.505 117.563Z" fill="#FF7F50"/>
<path d="M161.335 142.312H162.874C163.354 142.301 163.814 142.045 164.164 141.595C164.514 141.145 164.73 140.532 164.769 139.877L165.453 126.022C165.47 125.71 165.439 125.397 165.363 125.102C165.287 124.807 165.167 124.537 165.011 124.309C164.855 124.08 164.666 123.899 164.456 123.777C164.245 123.654 164.019 123.592 163.791 123.596H162.252C161.772 123.605 161.312 123.859 160.962 124.308C160.612 124.756 160.396 125.367 160.357 126.022L159.673 139.877C159.654 140.19 159.683 140.505 159.758 140.801C159.833 141.098 159.953 141.37 160.11 141.6C160.266 141.829 160.456 142.011 160.667 142.134C160.878 142.257 161.106 142.317 161.335 142.312Z" fill="#FF7F50"/>
<path d="M240.549 336.241H161.828C160.54 336.261 159.264 335.913 158.081 335.22C156.897 334.528 155.831 333.505 154.952 332.218C154.072 330.931 153.398 329.407 152.972 327.743C152.546 326.079 152.378 324.312 152.477 322.555L164.694 64.4207C164.908 60.7331 166.117 57.2869 168.086 54.7547C170.055 52.2225 172.643 50.7859 175.343 50.7253H254.058C255.346 50.707 256.622 51.0558 257.806 51.7494C258.989 52.4431 260.055 53.4665 260.934 54.7546C261.814 56.0426 262.488 57.5672 262.914 59.2313C263.34 60.8954 263.508 62.6626 263.408 64.4207L251.192 322.555C250.98 326.241 249.771 329.686 247.803 332.217C245.835 334.748 243.249 336.182 240.549 336.241Z" fill="#263238"/>
<path opacity="0.2" d="M206.539 325.265C209.297 321.609 209.504 315.776 207.003 312.237C204.502 308.699 200.239 308.794 197.481 312.45C194.723 316.106 194.516 321.938 197.017 325.477C199.518 329.016 203.782 328.921 206.539 325.265Z" fill="white"/>
<path d="M247.663 302.733H158.175C157.87 302.732 157.569 302.646 157.289 302.48C157.01 302.314 156.758 302.071 156.55 301.767C156.341 301.462 156.181 301.102 156.078 300.709C155.975 300.316 155.932 299.899 155.952 299.482L166.424 78.1067C166.47 77.3421 166.724 76.6291 167.136 76.1087C167.548 75.5883 168.087 75.2985 168.647 75.2964H258.141C258.446 75.2968 258.748 75.3828 259.027 75.5489C259.307 75.7151 259.558 75.958 259.767 76.2626C259.975 76.5672 260.136 76.9271 260.238 77.32C260.341 77.7129 260.384 78.1305 260.364 78.547L249.886 299.876C249.849 300.649 249.599 301.375 249.186 301.906C248.774 302.436 248.229 302.732 247.663 302.733Z" fill="white"/>
<path opacity="0.2" d="M222.694 215.479C232.704 202.208 233.457 181.036 224.377 168.189C215.296 155.343 199.82 155.687 189.81 168.958C179.8 182.229 179.047 203.401 188.128 216.248C197.208 229.094 212.684 228.75 222.694 215.479Z" fill="#FF7F50"/>
<path opacity="0.2" d="M203.832 243.801C183.059 243.801 167.252 220.654 168.599 192.204C169.947 163.755 187.936 140.607 208.716 140.607C229.496 140.607 245.296 163.755 243.949 192.204C242.601 220.654 224.585 243.801 203.832 243.801ZM208.62 141.544C188.223 141.544 170.555 164.27 169.235 192.204C167.915 220.138 183.428 242.864 203.825 242.864C224.222 242.864 241.89 220.138 243.217 192.204C244.544 164.27 229.044 141.544 208.62 141.544Z" fill="#407BFF"/>
<path d="M200.412 208.42L198.36 202.996C193.914 191.183 183.674 180.626 180.097 177.553L183.476 170.631C187.71 174.265 196.171 183.268 201.479 193.965C211.294 178.041 225.166 161.638 243.737 143.942L246.903 150.5C227.067 169.404 212.792 186.687 203.298 203.342L200.412 208.42Z" fill="#FF7F50"/>
<path opacity="0.2" d="M199.442 65.461C200.557 63.982 200.64 61.6199 199.625 60.1851C198.611 58.7503 196.885 58.786 195.769 60.265C194.654 61.744 194.571 64.106 195.586 65.5409C196.6 66.9757 198.326 66.9399 199.442 65.461Z" fill="white"/>
<path opacity="0.2" d="M207.19 59.1282H229.824C230.176 59.1225 230.525 59.2177 230.848 59.4075C231.171 59.5974 231.462 59.8777 231.702 60.2306C231.941 60.5834 232.124 61.0009 232.239 61.4564C232.354 61.9118 232.398 62.3951 232.368 62.8752C232.312 63.8821 231.984 64.8242 231.448 65.5172C230.911 66.2101 230.206 66.6042 229.468 66.6223H206.842C206.49 66.6263 206.141 66.5302 205.818 66.34C205.495 66.1497 205.204 65.8695 204.964 65.5172C204.724 65.1648 204.54 64.748 204.424 64.2932C204.308 63.8384 204.263 63.3555 204.29 62.8752C204.346 61.8683 204.675 60.9262 205.211 60.2333C205.747 59.5403 206.453 59.1462 207.19 59.1282Z" fill="white"/>
<path d="M122.942 128.336C121.786 129.957 120.548 131.746 119.406 133.526C118.263 135.306 117.121 137.133 116.047 139.006C114.973 140.88 113.995 142.753 112.983 144.73L112.299 146.201L111.615 147.69C111.389 148.186 111.184 148.692 110.986 149.208L110.439 150.585C110.215 151.372 110.088 152.204 110.062 153.048C110.008 154.134 110.008 155.223 110.062 156.308C110.196 158.65 110.425 160.98 110.746 163.287C111.047 165.648 111.43 168.018 111.834 170.378C112.237 172.739 112.682 175.128 113.133 177.451L110.603 178.753C109.048 174.171 107.744 169.437 106.704 164.589C106.176 162.091 105.771 159.546 105.493 156.973C105.355 155.601 105.284 154.218 105.281 152.833C105.265 151.201 105.467 149.579 105.876 148.046C106.034 147.521 106.116 147.315 106.225 146.997L106.54 146.107C106.745 145.517 106.957 144.927 107.224 144.355L107.908 142.631L108.633 140.955C109.599 138.746 110.652 136.61 111.786 134.557C112.908 132.505 114.071 130.51 115.295 128.58C116.519 126.65 117.757 124.833 119.18 122.959L122.942 128.336Z" fill="#B55B52"/>
<path d="M123.236 117.095C119.529 117.32 116.006 125.751 116.006 125.751L120.904 139.437C120.904 139.437 127.539 131.868 127.621 124.449C127.675 119.587 126.882 116.861 123.236 117.095Z" fill="#407BFF"/>
<path opacity="0.7" d="M123.236 117.095C119.529 117.32 116.006 125.751 116.006 125.751L120.904 139.437C120.904 139.437 127.539 131.868 127.621 124.449C127.675 119.587 126.882 116.861 123.236 117.095Z" fill="white"/>
<path opacity="0.2" d="M124.118 126.931C123.038 129.17 122.518 134.978 122.354 137.563C123.986 135.39 125.369 132.892 126.458 130.154C125.726 127.653 124.83 125.46 124.118 126.931Z" fill="black"/>
<path d="M112.402 176.027L116.909 177.9L113.906 182.06C113.906 182.06 110.657 180.683 110.206 177.657L112.402 176.027Z" fill="#B55B52"/>
<path d="M119.638 182.613L118.879 186.594L113.906 182.023L116.909 177.863L119.638 182.613Z" fill="#B55B52"/>
<path d="M149.296 100.842C149.153 101.395 149.255 101.957 149.522 102.088C149.789 102.219 150.117 101.891 150.254 101.339C150.391 100.786 150.295 100.215 150.028 100.083C149.762 99.9523 149.44 100.28 149.296 100.842Z" fill="#263238"/>
<path d="M149.905 100.056L150.979 100.177C150.979 100.177 150.213 100.955 149.905 100.056Z" fill="#263238"/>
<path d="M149.502 101.554C149.543 103.012 149.727 104.455 150.049 105.845C149.788 105.938 149.515 105.953 149.25 105.888C148.984 105.824 148.732 105.681 148.51 105.47L149.502 101.554Z" fill="#A02724"/>
<path d="M150.624 98.6782C150.575 98.669 150.529 98.6399 150.493 98.5949C150.456 98.5498 150.43 98.4907 150.419 98.4253C150.344 98.0019 150.199 97.6073 149.997 97.2714C149.794 96.9354 149.538 96.667 149.249 96.4862C149.187 96.4545 149.136 96.3906 149.108 96.3083C149.08 96.2259 149.076 96.1317 149.098 96.0459C149.109 96.003 149.126 95.9634 149.148 95.9296C149.17 95.8958 149.197 95.8684 149.227 95.8492C149.257 95.8299 149.29 95.8192 149.323 95.8176C149.356 95.816 149.389 95.8236 149.42 95.8398C149.792 96.0614 150.121 96.3998 150.38 96.8279C150.639 97.2559 150.821 97.7614 150.911 98.3035C150.919 98.3478 150.921 98.3939 150.916 98.4391C150.911 98.4843 150.9 98.5277 150.883 98.5669C150.866 98.6061 150.843 98.6402 150.816 98.6674C150.789 98.6945 150.759 98.7141 150.726 98.7251L150.624 98.6782Z" fill="#263238"/>
<path d="M135.247 103.194C135.343 107.625 135.015 115.597 132.511 117.854C132.511 117.854 132.846 122.407 138.667 123.952C145.063 125.648 142.245 120.44 142.245 120.44C138.893 118.379 139.406 114.875 140.411 111.728L135.247 103.194Z" fill="#B55B52"/>
<path d="M154.256 133.517C154.83 135.662 155.487 137.985 156.185 140.186C156.882 142.388 157.553 144.617 158.367 146.744C159.181 148.87 159.974 151.006 160.836 153.076C161.28 154.097 161.725 155.118 162.204 156.093C162.436 156.598 162.676 157.086 162.929 157.545L163.298 158.256L163.483 158.622L163.579 158.8L163.64 158.893C164.085 159.587 164.596 160.195 165.159 160.701C165.837 161.336 166.54 161.917 167.265 162.444C168.763 163.549 170.371 164.552 172.006 165.498C173.64 166.444 175.309 167.371 176.999 168.186C178.688 169.001 180.419 169.863 182.081 170.659L181.445 174.266C177.779 173.427 174.158 172.259 170.603 170.772C168.784 170.012 166.998 169.108 165.254 168.064C164.34 167.509 163.45 166.883 162.587 166.191C161.586 165.409 160.679 164.42 159.899 163.259L159.735 163.006L159.618 162.809L159.393 162.425L158.941 161.638C158.633 161.123 158.339 160.598 158.066 160.064C157.484 159.006 156.951 157.919 156.424 156.823C155.386 154.649 154.43 152.404 153.558 150.097C152.689 147.802 151.869 145.488 151.116 143.128C150.364 140.767 149.687 138.444 149.064 135.859L154.256 133.517Z" fill="#B55B52"/>
<path d="M181.178 170.64L185.213 168.504L185.015 174.884C185.015 174.884 181.746 176.073 180.227 173.816L181.178 170.64Z" fill="#B55B52"/>
<path d="M188.257 170.696L189.639 174.771L185.015 174.884L185.214 168.504L188.257 170.696Z" fill="#B55B52"/>
<path d="M121.328 330.574L126.67 331.117L128.257 314.321L122.915 313.778L121.328 330.574Z" fill="#B55B52"/>
<path d="M79.0156 292.579L82.504 298.255L92.8598 289.141L89.3714 283.464L79.0156 292.579Z" fill="#B55B52"/>
<path d="M84.1319 297.525L81.3207 290.124C81.2759 289.996 81.1982 289.894 81.1024 289.839C81.0066 289.784 80.8992 289.779 80.8008 289.825L76.3343 291.942C76.2222 292.003 76.121 292.097 76.0372 292.216C75.9534 292.335 75.8891 292.478 75.8484 292.633C75.8076 292.789 75.7915 292.955 75.801 293.12C75.8105 293.285 75.8454 293.445 75.9034 293.59C76.9157 296.148 77.4971 297.337 78.7283 300.569C79.4944 302.565 80.4588 305.6 81.5053 308.363C82.5519 311.127 84.5491 309.899 84.2892 308.616C83.1127 302.892 83.8925 301.309 84.2892 298.827C84.3456 298.381 84.2902 297.922 84.1319 297.525Z" fill="#263238"/>
<path d="M127.005 330.078H121C120.896 330.076 120.796 330.125 120.717 330.216C120.638 330.307 120.585 330.434 120.569 330.574L119.762 337.075C119.745 337.237 119.754 337.403 119.788 337.559C119.822 337.716 119.88 337.861 119.958 337.985C120.037 338.108 120.134 338.207 120.243 338.275C120.352 338.343 120.47 338.378 120.589 338.377C122.689 338.331 123.695 338.162 126.335 338.162C127.963 338.162 131.314 338.396 133.558 338.396C135.801 338.396 135.979 335.361 135.049 335.08C130.883 333.853 129.269 332.148 127.887 330.527C127.644 330.234 127.33 330.074 127.005 330.078Z" fill="#263238"/>
<path opacity="0.2" d="M128.257 314.321L127.374 323.661L122.053 322.93L122.915 313.787L128.257 314.321Z" fill="black"/>
<path opacity="0.2" d="M89.3713 283.464L92.8597 289.141L88.571 292.916L84.9526 287.351L89.3713 283.464Z" fill="black"/>
<path d="M121.752 161.638L143.175 167.324C153.298 126.51 150.877 125.17 150.877 125.17C149.303 124.005 147.679 122.973 146.013 122.079L145.719 121.929C144.351 121.245 144.064 121.142 142.231 120.411C139.071 119.39 136.136 118.538 132.504 117.835L131.82 117.704C131.136 117.592 130.507 117.498 129.878 117.414C129.454 117.348 129.03 117.311 128.626 117.273L127.258 117.17C124.919 117.011 123.243 117.058 123.243 117.058C124.42 142.547 123.524 149.882 121.752 161.638Z" fill="#407BFF"/>
<path opacity="0.7" d="M121.752 161.638L143.175 167.324C153.298 126.51 150.877 125.17 150.877 125.17C149.303 124.005 147.679 122.973 146.013 122.079L145.719 121.929C144.351 121.245 144.064 121.142 142.231 120.411C139.071 119.39 136.136 118.538 132.504 117.835L131.82 117.704C131.136 117.592 130.507 117.498 129.878 117.414C129.454 117.348 129.03 117.311 128.626 117.273L127.258 117.17C124.919 117.011 123.243 117.058 123.243 117.058C124.42 142.547 123.524 149.882 121.752 161.638Z" fill="white"/>
<path opacity="0.2" d="M147.799 134.697L145.863 134.266C145.863 137.76 146.834 143.756 147.778 147.568C148.579 143.821 149.201 140.739 149.673 138.144L147.799 134.697Z" fill="black"/>
<path d="M150.131 124.674C153.298 126.06 155.603 134.641 156.465 138.341L150.309 148.243C150.309 148.243 144.003 135.831 145.008 131.981C145.993 127.971 148.599 123.99 150.131 124.674Z" fill="#407BFF"/>
<path opacity="0.7" d="M150.131 124.674C153.298 126.06 155.603 134.641 156.465 138.341L150.309 148.243C150.309 148.243 144.003 135.831 145.008 131.981C145.993 127.971 148.599 123.99 150.131 124.674Z" fill="white"/>
<path d="M152.183 92.9924C151.547 95.5497 148.763 96.5708 145.993 95.2874C143.223 94.0041 141.472 90.8659 142.108 88.3086C142.744 85.7512 145.528 84.7301 148.264 86.0229C151 87.3156 152.812 90.435 152.183 92.9924Z" fill="#263238"/>
<path d="M136.116 92.2899C134.693 99.2594 133.982 102.163 135.61 106.96C138.059 114.182 144.611 115.315 147.525 109.123C150.145 103.559 152.033 93.0955 147.847 87.859C146.963 86.6897 145.873 85.8561 144.682 85.4405C143.491 85.0249 142.242 85.0416 141.058 85.4889C139.874 85.9363 138.795 86.7988 137.928 87.9915C137.062 89.1842 136.437 90.6657 136.116 92.2899Z" fill="#B55B52"/>
<path d="M144.064 84.1493C142.012 85.7605 137.655 75.6716 132.244 84.1493C128.373 90.2289 130.842 99.1375 130.842 99.1375C130.842 99.1375 127.757 91.709 125.295 95.3342C122.08 100.018 125.404 116.777 136.006 115.624C146.608 114.472 145.582 102.688 145.582 102.688C145.582 102.688 150.548 95.7745 150.302 89.5731C150.117 84.9268 147.484 81.4983 144.064 84.1493Z" fill="#263238"/>
<path d="M145.35 98.2756C145.085 99.5725 145.119 100.949 145.446 102.219C145.883 104.009 146.889 104.018 147.422 102.781C147.956 101.545 148.25 99.3997 147.491 97.9571C146.732 96.5145 145.692 96.8424 145.35 98.2756Z" fill="#B55B52"/>
<path d="M137.484 165.807C137.484 165.807 135.199 176.654 132.265 190.968C130.316 200.504 128.072 211.577 126.027 222.003C124.857 227.97 123.756 233.722 122.805 238.865C117.429 267.951 90.6164 292.953 90.6164 292.953L85.4248 285.132C85.4248 285.132 103.441 264.354 108.681 237.216C119.262 182.125 113.311 172.832 121.745 161.638L137.484 165.807Z" fill="#263238"/>
<path opacity="0.2" d="M135.172 175.53C134.379 179.736 133.38 185.048 132.279 190.987C130.329 200.523 128.086 211.596 126.041 222.022C125.165 208.72 124.673 184.261 131.82 176.654C133.229 175.174 134.344 174.865 135.172 175.53Z" fill="black"/>
<path d="M91.061 294.078L84.5767 284.307L86.5397 281.609L94.4947 291.876L91.061 294.078Z" fill="#407BFF"/>
<path opacity="0.7" d="M91.061 294.078L84.5767 284.307L86.5397 281.609L94.4947 291.876L91.061 294.078Z" fill="white"/>
<path d="M85.11 301.497C85.0447 301.495 84.9801 301.479 84.9184 301.45C84.2823 301.131 83.8788 299.464 83.6941 298.499C83.6881 298.466 83.6895 298.432 83.698 298.4C83.7066 298.368 83.7219 298.341 83.742 298.321C83.7618 298.301 83.7858 298.291 83.8104 298.291C83.8349 298.291 83.8589 298.301 83.8788 298.321C84.0703 298.471 85.7529 299.82 85.7871 300.766C85.7928 300.869 85.778 300.972 85.7443 301.064C85.7105 301.157 85.6592 301.235 85.5956 301.291C85.4558 301.434 85.2843 301.506 85.11 301.497ZM84.0224 298.827C84.3028 300.091 84.6585 300.944 85.0074 301.113C85.0819 301.144 85.1611 301.15 85.2376 301.128C85.3141 301.107 85.3855 301.06 85.4451 300.991C85.534 300.906 85.5409 300.822 85.534 300.766C85.4998 300.279 84.6859 299.398 84.0224 298.827Z" fill="#407BFF"/>
<path d="M142.833 167.325C142.833 167.325 144.201 225.235 141.178 247.052C138.072 269.788 128.592 321.31 128.592 321.31L120.89 319.951C120.89 319.951 125.76 267.811 127.833 245.273C130.083 220.692 127.149 163.128 127.149 163.128L142.833 167.325Z" fill="#263238"/>
<path d="M130.247 321.956L119.269 320.017L119.399 316.438L131.348 317.15L130.247 321.956Z" fill="#407BFF"/>
<path opacity="0.7" d="M130.247 321.956L119.269 320.017L119.399 316.438L131.348 317.15L130.247 321.956Z" fill="white"/>
<path d="M85.3699 299.23C84.8017 299.193 84.2472 298.978 83.7488 298.603C83.7301 298.587 83.7147 298.565 83.7039 298.538C83.6932 298.512 83.6874 298.483 83.6873 298.453C83.6903 298.422 83.6979 298.394 83.7097 298.368C83.7215 298.342 83.7372 298.32 83.7557 298.303C83.8172 298.303 85.1237 297.319 85.8761 297.703C85.9704 297.75 86.056 297.825 86.1269 297.922C86.1979 298.019 86.2523 298.136 86.2865 298.265C86.3314 298.39 86.3444 298.532 86.3233 298.668C86.3022 298.804 86.2483 298.926 86.1702 299.015C85.9272 299.202 85.6466 299.278 85.3699 299.23ZM84.0908 298.471C84.6859 298.846 85.7256 299.052 86.0129 298.743C86.0607 298.687 86.1086 298.603 86.0129 298.387C85.9927 298.304 85.9587 298.229 85.9136 298.167C85.8685 298.105 85.8135 298.059 85.7529 298.031C85.1791 297.943 84.5993 298.097 84.0908 298.471Z" fill="#407BFF"/>
<path d="M128.989 331.352C128.425 331.335 127.864 331.247 127.313 331.089C127.287 331.085 127.262 331.069 127.244 331.044C127.225 331.018 127.213 330.985 127.21 330.949C127.206 330.913 127.211 330.876 127.223 330.844C127.235 330.812 127.255 330.786 127.279 330.771C127.525 330.593 129.686 329.103 130.329 329.6C130.391 329.646 130.442 329.714 130.478 329.796C130.514 329.878 130.533 329.972 130.534 330.068C130.548 330.224 130.532 330.382 130.489 330.528C130.446 330.674 130.377 330.802 130.288 330.902C129.904 331.247 129.446 331.405 128.989 331.352ZM127.737 330.846C128.913 331.117 129.789 331.042 130.124 330.649C130.182 330.58 130.226 330.492 130.253 330.395C130.281 330.297 130.29 330.191 130.281 330.087C130.283 330.049 130.277 330.011 130.264 329.978C130.251 329.945 130.231 329.918 130.206 329.9C129.857 329.637 128.626 330.265 127.737 330.846Z" fill="#407BFF"/>
<path d="M127.34 331.099C127.316 331.108 127.29 331.108 127.265 331.099C127.247 331.081 127.232 331.057 127.222 331.029C127.213 331.001 127.209 330.97 127.21 330.939C127.21 330.808 127.477 327.642 128.77 327.829C129.112 327.876 129.214 328.11 129.235 328.307C129.331 329.131 128.038 330.724 127.388 331.117L127.34 331.099ZM128.667 328.129C127.901 328.129 127.593 329.862 127.498 330.611C128.182 330.068 129.043 328.822 128.989 328.326C128.989 328.326 128.989 328.167 128.743 328.138L128.667 328.129Z" fill="#407BFF"/>
<path d="M121.615 159.849L120.336 162.2C120.24 162.388 120.391 162.64 120.637 162.706L143.106 168.664C143.298 168.664 143.476 168.664 143.503 168.467L144.016 165.9C144.016 165.732 143.9 165.526 143.688 165.469L121.991 159.718C121.926 159.694 121.857 159.693 121.791 159.716C121.725 159.739 121.664 159.785 121.615 159.849Z" fill="#FF7F50"/>
<path d="M124.132 163.933L123.551 163.774C123.435 163.774 123.359 163.643 123.38 163.549L124.064 160.224C124.064 160.13 124.201 160.074 124.31 160.102L124.891 160.261C125.008 160.261 125.09 160.392 125.069 160.486L124.385 163.812C124.358 163.933 124.249 163.933 124.132 163.933Z" fill="#263238"/>
<path d="M138.804 167.859L138.223 167.709C138.106 167.709 138.031 167.568 138.052 167.474L138.736 164.158C138.736 164.055 138.866 163.999 138.982 164.037L139.563 164.186C139.673 164.186 139.755 164.327 139.734 164.421L139.05 167.737C139.03 167.84 138.92 167.896 138.804 167.859Z" fill="#263238"/>
</svg>
